<?xml version="1.0" standalone="no"?>
<!DOCTYPE svg PUBLIC "-//W3C//DTD SVG 20010904//EN"
 "http://www.w3.org/TR/2001/REC-SVG-20010904/DTD/svg10.dtd">
<svg version="1.0" xmlns="http://www.w3.org/2000/svg"
 width="512.000000pt" height="512.000000pt" viewBox="0 0 512.000000 512.000000"
 preserveAspectRatio="xMidYMid meet">
<metadata>
Created by potrace 1.14, written by Peter Selinger 2001-2017
</metadata>
<g transform="translate(0.000000,512.000000) scale(0.100000,-0.100000)"
fill="#000000" stroke="none">
<path d="M2329 4806 c-2 -2 -24 -7 -49 -10 -122 -17 -268 -76 -391 -158 -85
-56 -231 -198 -252 -245 -6 -13 -13 -23 -17 -23 -16 0 -112 -213 -133 -298
-13 -50 -26 -94 -28 -96 -3 -3 -29 -8 -59 -11 -268 -30 -492 -183 -606 -413
-21 -42 -38 -78 -39 -79 0 0 -17 -4 -39 -7 -50 -8 -176 -51 -229 -78 -222
-112 -388 -316 -458 -561 -24 -84 -33 -268 -18 -362 43 -273 214 -512 459
-641 142 -76 237 -96 479 -100 107 -2 195 -5 196 -7 1 -1 5 -48 9 -103 3 -56
8 -108 11 -115 3 -8 7 -27 9 -44 2 -16 9 -50 16 -75 7 -25 13 -52 15 -60 15
-78 119 -294 190 -396 128 -185 321 -355 515 -456 47 -24 87 -44 90 -45 3 0
22 -8 43 -17 43 -17 158 -53 197 -60 14 -2 36 -7 50 -10 68 -16 96 -18 240
-22 121 -2 180 1 267 17 520 91 941 454 1105 954 34 105 68 292 68 376 l0 59
43 0 c23 0 101 1 173 2 72 0 165 6 205 14 346 61 615 314 704 659 23 90 28
286 9 375 -59 282 -252 522 -510 634 -41 18 -76 35 -78 37 -2 2 -7 34 -11 71
-30 317 -239 599 -529 713 -140 56 -314 78 -437 56 -113 -20 -121 -22 -154
-35 -31 -13 -33 -13 -45 12 -27 61 -124 194 -186 256 -191 192 -425 291 -695
294 -70 1 -128 0 -130 -2z"/>
</g>
</svg>
